<?xml version="1.0" ?><svg enable-background="new 0 0 256 256" id="Layer_1" version="1.1" viewBox="0 0 256 256" xml:space="preserve" xmlns="http://www.w3.org/2000/svg" xmlns:xlink="http://www.w3.org/1999/xlink"><g><path d="M208.9,52.1c-12.1,14-10,15-14.8,28.8c-1.5,4.2-1.8,8.1-1.7,12c0.2,9.3,2.6,18.8-2.3,32.6   c-6.9,19.6-18.6,18.8-24.6,33.5c-6,14.6,4.2,24.5-1.6,39c-5.8,14.5-11.4,10.8-14.1,19.8c-1.3,4.2-1,9.1-0.4,13   c0.7,4.3,1.8,7.5,1.9,7.7c-3.3-1.1-6.1-1.7-8-1.2c0,0-0.1-0.1-0.2-0.4c-1.1-2.4-6.9-15.2-5.1-23.3c2-9,11.6-16.4,12.7-22.5   c1.1-6.1,0-24.1,1.8-33.4c1.7-9.3,22.1-31.6,25.1-38c3-6.3-2.6-47.2,2.5-58.7c0-0.1,0.1-0.2,0.1-0.3c5.4-11.1,11.5-6.1,14.5-16.9   c3-10.8,1.2-19.3,1.2-19.3s7.5-2.3,16.2-0.6C212.3,24,221,38.1,208.9,52.1z" fill="#EB573B"/><path d="M228.5,97.8c-1.2,9,0.6,18.5,0.5,28c0,4.9-0.5,9.7-2.2,14.5c-4.8,13.8-3.4,21.8-12.6,28.1   c-9.2,6.3-20.8,8.3-19.7,20l0.2,2.2c1,11,1.6,22-4.6,33.8c-6.7,12.6-7.7,5.6-10.2,13.9c-2.5,8.3-1.9,13.8-1.9,13.8s-6.6-4.1-14.2-8   c0.7-15.2,5.1-22,11.2-30.4c4.1-5.7,4.8-10.2,4.6-16.7c-0.1-3.2-0.4-6.8-0.7-11.3c-0.9-13.9,2.3-16.6,10.1-29.7   c7.9-13,24-7.2,23.1-33.6c-0.1-3.8-0.2-7.4-0.1-10.8c0.4-20.4,4.3-34.4,12-45.5c9-12.9,4.9-34.8,4.9-34.8c7.8,4.3,14.2,8.5,16.3,12   c2.9,4.8,4.3,15.7-0.3,23.5C240.1,74.6,230.2,84.2,228.5,97.8z" fill="#EB573B"/><path d="M211.9,111.4c-0.1,3.4,0,7,0.1,10.8c0.9,26.4-15.2,20.6-23.1,33.6c-7.8,13-11.1,15.8-10.1,29.7   c0.3,4.5,0.6,8.2,0.7,11.3c0.2,6.5-0.5,11-4.6,16.7c-6,8.5-10.5,15.2-11.2,30.4c-4.1-2.1-8.6-4.1-12.4-5.4   c-0.1-0.3-1.2-3.5-1.9-7.7c-0.6-3.9-0.9-8.8,0.4-13c2.7-9,8.3-5.3,14.1-19.8c5.8-14.5-4.3-24.4,1.6-39   c5.9-14.6,17.7-13.9,24.6-33.5c4.8-13.7,2.4-23.3,2.3-32.6c-0.1-4,0.2-7.9,1.7-12c4.8-13.8,2.7-14.8,14.8-28.8   c12.1-14,3.4-28.2,3.4-28.2v0c2.5,0.5,5.2,1.3,7.8,2.6c3,1.5,6,3.1,8.8,4.6c0,0,4.1,21.9-4.9,34.8C216.2,77,212.3,91.1,211.9,111.4   z" fill="#FFE5C4"/><path d="M180.3,61.1c-5.7-25.3-10.6-52.2-41.3-56.7C99.4-1.4,85.1,61.6,63.6,72.3C42.2,83,5.1,98.2,8.4,125   c3.2,26.8,35,35.2,44.9,67.4c9.9,32.1,29.7,53.6,64.2,53.6c11.2,0,19.2-3.6,25.7-9c-1.1-2.4-6.9-15.2-5.1-23.3   c2-9,11.6-16.4,12.7-22.5c1.1-6.1,0-24.1,1.8-33.4c1.7-9.3,22.1-31.6,25.1-38C180.7,113.4,175.1,72.6,180.3,61.1z M92.7,174.1   c-22.1,0-40-17.9-40-40.1c0-22.1,17.9-40.1,40-40.1c22.1,0,40,17.9,40,40.1C132.7,156.1,114.8,174.1,92.7,174.1z" fill="#FFFFFF"/><ellipse cx="92.7" cy="134" fill="#FFD11D" rx="40" ry="40.1"/><path d="M112.9,99.4c11.8,7,19.8,19.8,19.8,34.6c0,22.1-17.9,40.1-40,40.1c-15,0-28.2-8.3-35-20.6   c0,0,29.5,20.5,52.4,2.5S112.9,99.4,112.9,99.4z" fill="#434A54" opacity="0.15"/><path d="M246,160.3c-3.3,27.3-28.9,24.4-51.2,30.3l-0.2-2.2c-1.1-11.7,10.5-13.6,19.7-20   c9.2-6.3,7.7-14.3,12.6-28.1c1.7-4.7,2.2-9.6,2.2-14.5C239.8,135.7,247.7,146.5,246,160.3z" fill="#FFFFFF"/><path d="M226.1,171.3c-6.3,6.6-14.7,13.1-31.3,19.2l-0.2-2.2c-1.1-11.7,10.5-13.6,19.7-20   c9.2-6.3,7.7-14.3,12.6-28.1c1.7-4.7,2.2-9.6,2.2-14.5C239.8,135.7,232.4,164.7,226.1,171.3z" fill="#434A54" opacity="0.15"/><path d="   M208.9,52.1c-12.1,14-10,15-14.8,28.8c-1.5,4.2-1.8,8.1-1.7,12c0.2,9.3,2.6,18.8-2.3,32.6c-6.9,19.6-18.6,18.8-24.6,33.5   c-6,14.6,4.2,24.5-1.6,39c-5.8,14.5-11.4,10.8-14.1,19.8c-1.3,4.2-1,9.1-0.4,13c0.7,4.3,1.8,7.5,1.9,7.7c-3.3-1.1-6.1-1.7-8-1.2   c0,0-0.1-0.1-0.2-0.4c-1.1-2.4-6.9-15.2-5.1-23.3c2-9,11.6-16.4,12.7-22.5c1.1-6.1,0-24.1,1.8-33.4c1.7-9.3,22.1-31.6,25.1-38   c3-6.3-2.6-47.2,2.5-58.7c0-0.1,0.1-0.2,0.1-0.3c5.4-11.1,11.5-6.1,14.5-16.9c3-10.8,1.2-19.3,1.2-19.3s7.5-2.3,16.2-0.6   C212.3,24,221,38.1,208.9,52.1z" fill="none" stroke="#434A54" stroke-linecap="round" stroke-linejoin="round" stroke-miterlimit="10" stroke-width="8"/><path d="   M228.5,97.8c-1.2,9,0.6,18.5,0.5,28c0,4.9-0.5,9.7-2.2,14.5c-4.8,13.8-3.4,21.8-12.6,28.1c-9.2,6.3-20.8,8.3-19.7,20l0.2,2.2   c1,11,1.6,22-4.6,33.8c-6.7,12.6-7.7,5.6-10.2,13.9c-2.5,8.3-1.9,13.8-1.9,13.8s-6.6-4.1-14.2-8c0.7-15.2,5.1-22,11.2-30.4   c4.1-5.7,4.8-10.2,4.6-16.7c-0.1-3.2-0.4-6.8-0.7-11.3c-0.9-13.9,2.3-16.6,10.1-29.7c7.9-13,24-7.2,23.1-33.6   c-0.1-3.8-0.2-7.4-0.1-10.8c0.4-20.4,4.3-34.4,12-45.5c9-12.9,4.9-34.8,4.9-34.8c7.8,4.3,14.2,8.5,16.3,12   c2.9,4.8,4.3,15.7-0.3,23.5C240.1,74.6,230.2,84.2,228.5,97.8z" fill="none" stroke="#434A54" stroke-linecap="round" stroke-linejoin="round" stroke-miterlimit="10" stroke-width="8"/><path d="   M211.9,111.4c-0.1,3.4,0,7,0.1,10.8c0.9,26.4-15.2,20.6-23.1,33.6c-7.8,13-11.1,15.8-10.1,29.7c0.3,4.5,0.6,8.2,0.7,11.3   c0.2,6.5-0.5,11-4.6,16.7c-6,8.5-10.5,15.2-11.2,30.4c-4.1-2.1-8.6-4.1-12.4-5.4c-0.1-0.3-1.2-3.5-1.9-7.7c-0.6-3.9-0.9-8.8,0.4-13   c2.7-9,8.3-5.3,14.1-19.8c5.8-14.5-4.3-24.4,1.6-39c5.9-14.6,17.7-13.9,24.6-33.5c4.8-13.7,2.4-23.3,2.3-32.6   c-0.1-4,0.2-7.9,1.7-12c4.8-13.8,2.7-14.8,14.8-28.8c12.1-14,3.4-28.2,3.4-28.2v0c2.5,0.5,5.2,1.3,7.8,2.6c3,1.5,6,3.1,8.8,4.6   c0,0,4.1,21.9-4.9,34.8C216.2,77,212.3,91.1,211.9,111.4z" fill="none" stroke="#434A54" stroke-linecap="round" stroke-linejoin="round" stroke-miterlimit="10" stroke-width="8"/><path d="   M180.3,61.1c-5.7-25.3-10.6-52.2-41.3-56.7C99.4-1.4,85.1,61.6,63.6,72.3C42.2,83,5.1,98.2,8.4,125c3.2,26.8,35,35.2,44.9,67.4   c9.9,32.1,29.7,53.6,64.2,53.6c11.2,0,19.2-3.6,25.7-9c-1.1-2.4-6.9-15.2-5.1-23.3c2-9,11.6-16.4,12.7-22.5   c1.1-6.1,0-24.1,1.8-33.4c1.7-9.3,22.1-31.6,25.1-38C180.7,113.4,175.1,72.6,180.3,61.1z M92.7,174.1c-22.1,0-40-17.9-40-40.1   c0-22.1,17.9-40.1,40-40.1c22.1,0,40,17.9,40,40.1C132.7,156.1,114.8,174.1,92.7,174.1z" fill="none" stroke="#434A54" stroke-linecap="round" stroke-linejoin="round" stroke-miterlimit="10" stroke-width="8"/><ellipse cx="92.7" cy="134" fill="none" rx="40" ry="40.1" stroke="#434A54" stroke-linecap="round" stroke-linejoin="round" stroke-miterlimit="10" stroke-width="8"/><path d="   M246,160.3c-3.3,27.3-28.9,24.4-51.2,30.3l-0.2-2.2c-1.1-11.7,10.5-13.6,19.7-20c9.2-6.3,7.7-14.3,12.6-28.1   c1.7-4.7,2.2-9.6,2.2-14.5C239.8,135.7,247.7,146.5,246,160.3z" fill="none" stroke="#434A54" stroke-linecap="round" stroke-linejoin="round" stroke-miterlimit="10" stroke-width="8"/></g></svg>